<?xml version="1.0" standalone="no"?>
<!DOCTYPE svg PUBLIC "-//W3C//DTD SVG 20010904//EN"
 "http://www.w3.org/TR/2001/REC-SVG-20010904/DTD/svg10.dtd">
<svg version="1.0" xmlns="http://www.w3.org/2000/svg"
 width="180.000000pt" height="180.000000pt" viewBox="0 0 180.000000 180.000000"
 preserveAspectRatio="xMidYMid meet">
<metadata>
Created by potrace 1.14, written by Peter Selinger 2001-2017
</metadata>
<g transform="translate(0.000000,180.000000) scale(0.100000,-0.100000)"
fill="#000000" stroke="none">
<path d="M363 1232 c-166 -59 -260 -224 -232 -404 17 -107 90 -202 194 -254
54 -26 70 -29 155 -29 82 0 103 4 150 26 61 29 104 66 140 119 32 47 37 50 96
50 47 0 52 2 58 25 6 25 8 25 107 25 86 0 105 3 127 20 16 13 37 20 60 18 34
-2 39 1 69 49 12 19 16 16 54 -39 3 -5 20 -11 37 -13 24 -3 39 2 58 20 33 30
32 30 59 1 19 -21 28 -23 56 -17 37 9 139 51 139 58 0 2 -30 33 -66 68 l-65
65 -315 0 c-270 0 -315 2 -320 15 -5 11 -22 15 -64 15 -55 0 -59 2 -79 34 -31
50 -105 114 -159 138 -67 30 -190 34 -259 10z m19 -261 c28 -25 33 -36 33 -75
0 -36 -6 -51 -29 -75 -25 -26 -37 -31 -75 -31 -103 1 -148 105 -77 176 46 46
101 48 148 5z"/>
</g>
</svg>
